<?xml version="1.0" standalone="no"?>
<!DOCTYPE svg PUBLIC "-//W3C//DTD SVG 20010904//EN"
 "http://www.w3.org/TR/2001/REC-SVG-20010904/DTD/svg10.dtd">
<svg version="1.0" xmlns="http://www.w3.org/2000/svg"
 width="256.000000pt" height="256.000000pt" viewBox="0 0 256.000000 256.000000"
 preserveAspectRatio="xMidYMid meet">
<metadata>
Created by potrace 1.11, written by Peter Selinger 2001-2013
</metadata>
<g transform="translate(0.000000,256.000000) scale(0.100000,-0.100000)"
fill="#000000" stroke="none">
<path d="M2374 1930 c-56 -4 -168 -10 -250 -14 -82 -3 -176 -8 -209 -11 -33
-3 -112 -7 -175 -10 -63 -3 -198 -10 -300 -15 -319 -17 -548 -29 -760 -40
-113 -6 -280 -15 -372 -20 -91 -6 -197 -10 -235 -10 l-68 0 4 -552 c1 -304 4
-553 5 -554 0 -1 571 31 1269 70 l1267 71 0 336 c0 185 3 431 7 547 l6 212
-44 -1 c-24 -1 -89 -5 -145 -9z m-1119 -189 l50 -18 3 -66 3 -67 89 0 90 0 0
-70 0 -70 -90 0 -90 0 0 -78 c0 -120 48 -182 142 -182 34 0 37 -3 51 -42 15
-41 15 -29 16 201 1 190 4 242 14 239 100 -37 115 -40 149 -22 36 19 198 33
198 17 0 -5 -9 -36 -21 -70 l-20 -61 -48 -6 c-27 -4 -61 -16 -76 -28 -46 -36
-55 -73 -55 -229 l0 -141 -152 4 c-170 4 -201 13 -265 80 -68 71 -73 94 -73
376 0 285 -7 265 85 233z m-656 -165 c28 -10 42 -10 70 0 50 18 89 17 137 -5
34 -16 43 -16 59 -5 50 36 148 25 206 -23 56 -47 59 -63 59 -288 l0 -205 -70
0 -70 0 0 190 c0 174 -2 190 -18 199 -14 7 -25 6 -40 -5 -21 -15 -22 -22 -22
-200 l0 -184 -70 0 -70 0 0 190 c0 174 -2 190 -18 199 -14 7 -25 6 -40 -5 -21
-15 -22 -22 -22 -200 l0 -184 -70 0 -70 0 0 270 c0 149 3 270 8 269 4 0 22 -6
41 -13z"/>
</g>
</svg>
